<?xml version="1.0" ?><!DOCTYPE svg  PUBLIC '-//W3C//DTD SVG 1.1//EN'  'http://www.w3.org/Graphics/SVG/1.1/DTD/svg11.dtd'><svg enable-background="new 0 0 126 126" id="Layer_1" version="1.1" viewBox="0 0 126 126" xml:space="preserve" xmlns="http://www.w3.org/2000/svg" xmlns:xlink="http://www.w3.org/1999/xlink"><g><g><g><path d="M105.732,61.3949c-1.4921,0.2172-15.6579-4.4239-17.1594-10.7702     c-1.5016-6.355-12.8343-12.9697-17.66-11.336c-4.8257,1.6337-11.1529-0.1134-11.1529-0.1134l-3.9852-1.9265l-0.9066-0.4344     h-0.0095L4.4873,65.8979c-4.642,2.6802-4.6517,9.377-0.0175,12.0707l50.2207,29.1911c4.3216,2.5119,9.6569,2.5196,13.9857,0.0202     l52.0806-30.0712c1.6526-0.9536,3.0314-2.3701,3.7491-4.1362C128.4911,63.2268,107.1013,61.2059,105.732,61.3949z" fill="#F3F6FD"/></g><g><path d="M1.0521,71.1053l26.1662,15.2075l9.26-5.3462L7.5291,64.1418l0.5565-0.3214l28.9489,16.8253l9.3454-5.396     L17.4303,58.4249l0.3959-0.2286l28.9494,16.8248l9.4255-5.4415L27.2517,52.7543l0.3907-0.2256L56.592,69.3539l9.3403-5.393     L36.9826,47.1357l0.5561-0.321l28.9497,16.8253l9.2651-5.3492L46.8037,41.4651l0.5568-0.3214l67.8776,39.1516l-0.5568,0.3214     L76.1917,58.5454l-9.2651,5.3492l38.4901,22.0714l-0.556,0.321L66.3703,64.2155L37.4725,80.8998l38.4911,22.0722l-0.556,0.321     L36.9163,81.2208l-9.26,5.3466l38.1274,21.8636c-0.2482,0.0758-0.4973,0.146-0.7484,0.2078L1.0137,71.7124     C1.0202,71.5093,1.0284,71.3067,1.0521,71.1053z" fill="#FDFEFF"/></g><path d="M56.9777,49.9437c0,0-3.1195-0.8519-3.185-1.1392c-0.2247-0.9894-1.0017-3.5641-1.7659-3.4986    c-0.9835,0.0851-0.6692,1.0656-0.6692,1.0656c0.0932,0.4283,1.0664,2.7876,1.47,3.602c0.1021,0.206,4.1951,0.6722,4.1951,0.6722    C56.8179,50.1898,56.9777,49.9437,56.9777,49.9437z" fill="#9EB5DF"/><path d="M38.0927,78.8613l-0.3831-0.1761L37.431,77.909l0.2529-0.2025l-0.0607-0.1671l0.0967-0.0805    c-0.0632-0.1897-0.1052-0.4127-0.1353-0.6526l-0.3954,0.3305l-6.5911-3.0076L30.59,74.1273l-6.864-3.1368l-0.0272-0.0725    l1.8275-1.5108l0.1882-0.1575l1.8584-1.5279l0.1848-0.1551l1.854-1.5325l0.1882-0.1575l1.8547-1.5248l0.1884-0.1579l1.8541-1.5329    l0.0601-0.0499l1.5305-1.2675l3.0663-0.0466l2.7207-3.5421l-3.0292-2.3429L32.97,58.2406l-0.9291,0.7231l-0.7992,0.6598    l-0.1881,0.1571l-1.854,1.5329l-0.1289,0.0991l-1.9142,1.5835l-0.1282,0.1075l-6.4334,5.31l0.0054,0.013l-0.6516-0.2993    l-0.659,0.5514l-0.3021-0.8529l-1.7159-0.7844l-0.9881,0.0961l-1.9849,1.6508l0.6945,1.96l1.4476,1.2094l1.7161,0.7837    l0.7718-0.6454l1.6609,0.7608l0.1276,0.0586l3.0148,1.3773l0.17,0.0754l9.5168,4.3463l0.0213,0.0086l3.0098,1.3731l0.128,0.0578    l0.3832,0.1761l0.2634-0.2205l-0.1386-0.3797l0.5053-0.4141l0.3788,0.1704l0.2683-0.216L38.0927,78.8613z M23.4168,70.1093    l-0.1631-0.4641l-0.0256-0.0135l-0.0896-0.2561l0.8401-0.6935l0.7418,0.3456L23.4168,70.1093z M24.3823,68.3535l0.3918-0.3281    l0.2095,0.608L24.3823,68.3535z M25.4367,68.4375l-0.2551-0.7438l0.8403-0.6943l0.7417,0.346L25.4367,68.4375z M26.4245,66.6628    l0.3962-0.3224l0.2049,0.603L26.4245,66.6628z M27.4833,66.7521l-0.2596-0.7491l0.8401-0.6935l0.7381,0.3483L27.4833,66.7521z     M28.4675,64.9808l0.3919-0.3281l0.2094,0.608L28.4675,64.9808z M29.5218,65.0645l-0.2551-0.7438l0.8405-0.6943l0.7415,0.346    L29.5218,65.0645z M30.5063,63.2928l0.396-0.3221l0.2049,0.6027L30.5063,63.2928z M33.9537,61.402l-0.3465,0.2895l-0.1866-0.54    L33.9537,61.402z M32.9447,61.2797l0.2095,0.608l-0.6014-0.2799L32.9447,61.2797z M32.8873,62.2847l-1.327,1.0929l-0.2551-0.7438    l0.8404-0.6943L32.8873,62.2847z M32.3188,59.7758l0.1423,0.4206l-0.4094-0.1977L32.3188,59.7758z M32.3857,60.6768    l-0.3918,0.3281l-0.2091-0.6087L32.3857,60.6768z M31.3317,60.592l0.2549,0.7446l-0.8404,0.6943l-0.7371-0.341L31.3317,60.592z     M30.3471,62.3644l-0.3998,0.3255l-0.2048-0.603L30.3471,62.3644z M29.293,62.28l0.2552,0.7435l-0.8405,0.6943l-0.7416-0.346    L29.293,62.28z M28.3004,64.0498l-0.3918,0.3281l-0.209-0.6091L28.3004,64.0498z M27.2463,63.965l0.255,0.7446l-0.8404,0.6943    l-0.737-0.3414L27.2463,63.965z M26.2618,65.7374l-0.3962,0.3224l-0.2048-0.603L26.2618,65.7374z M25.2077,65.6527l0.2552,0.7438    l-0.8404,0.6943l-0.7417-0.346L25.2077,65.6527z M24.2196,67.4274l-0.3963,0.3232l-0.2046-0.6038L24.2196,67.4274z     M21.8423,68.4324l1.3224-1.0975l0.2558,0.7522l-0.8364,0.6904L21.8423,68.4324z M21.4108,72.5523l0.0601-0.0499l1.069-0.0589    l0.6432,0.2978l0.2626,0.738L21.4108,72.5523z M24.3133,72.0575l0.2133,0.6049l-0.6047-0.2775L24.3133,72.0575z M24.0178,73.627    l-0.2132-0.6045L24.4092,73.3L24.0178,73.627z M26.9204,73.1314l-0.482,0.4032l-1.2904-0.5911l-0.2671-0.7433L26.9204,73.1314z     M24.5486,73.984l0.482-0.4032l1.2902,0.5922l0.2627,0.7373L24.5486,73.984z M27.4513,73.4884l0.2133,0.6049l-0.6049-0.2775    L27.4513,73.4884z M27.1555,75.0591l-0.2131-0.6056l0.6048,0.2771L27.1555,75.0591z M30.0582,74.5635l-0.4818,0.4021    l-1.2905-0.5911l-0.2627-0.7373L30.0582,74.5635z M27.6865,75.4153l0.4867-0.3986l1.2856,0.5872l0.2674,0.7422L27.6865,75.4153z     M30.5939,74.9243l0.2086,0.5999l-0.6047-0.2775L30.5939,74.9243z M30.2934,76.49l-0.2086-0.6003l0.6004,0.2722L30.2934,76.49z     M33.2008,75.9994l-0.4865,0.3983l-1.2904-0.5922l-0.2628-0.7373L33.2008,75.9994z M30.829,76.8512l0.4821-0.4036l1.2902,0.5922    l0.2628,0.7373L30.829,76.8512z M33.7318,76.3553l0.2131,0.6056l-0.6048-0.2775L33.7318,76.3553z M33.4359,77.9259l-0.2131-0.6049    l0.6048,0.2775L33.4359,77.9259z M36.3386,77.4303l-0.482,0.4032l-1.2902-0.5922l-0.2674-0.7422L36.3386,77.4303z     M33.9671,78.2822l0.4817-0.4024l1.2907,0.5911l0.2624,0.738L33.9671,78.2822z M36.8696,77.7869l0.2184,0.6182l-0.5532-0.2512    l-0.01-0.0179l-0.0468-0.0218L36.8696,77.7869z M36.5738,79.3568l-0.2132-0.6049l0.6048,0.2775L36.5738,79.3568z" fill="#E1E9F4"/><g><g><g><g><path d="M45.8564,65.0954c0,0,2.2653-0.396,2.5646-0.92c0.2369-0.4179,0.4367-0.572,0.5114-0.7612        c0.0587-0.1184,0.1845-0.2177,0.3326-0.3129c0.2677-0.1565,0.2576-0.2508,0.543-0.6342        c0.3599-0.2053,0.8647-0.1651,1.2532-0.1643c1.3386,0.1008,1.4469-0.0189,1.4574-0.059c0-0.0071,0.0004-0.0142,0.0004-0.0142        c-0.0084-0.0174-0.0348-0.0336-0.0795-0.0488c-0.433-0.1432-1.3115-0.3463-2.1388-0.3393l-0.2745-0.0312l0.2987-0.1351        l-0.2767-0.0938c-0.2477,0.105-0.7418,0.265-0.9298,0.3429c-0.0047,0.0021-0.0047,0.0021-0.0094,0.0043        c-0.0776,0.0209-0.0876,0.0538-0.0664,0.0865c-0.0003,0.0072,0.0084,0.0174,0.017,0.0276        c0.0131,0.0153,0.0307,0.0285,0.0483,0.0418c0.0134,0.0081,0.0265,0.0163,0.0265,0.0163l-0.2014,0.0699        c-0.3746,0.1058-0.7225,0.228-1.0212,0.3631l-0.6617,0.2994c0.0675-0.1153,0.1809-0.2514,0.4266-0.4119        c0.2177-0.148,1.3126-0.9188,1.3126-0.9188c0.3601-0.2052,0.869-0.1601,1.2531-0.1643        c1.3339,0.103,1.4559-0.0157,1.4529-0.0568c0.0048-0.0092,0.0005-0.0144,0.0005-0.0144        c0.0005-0.0144-0.0352-0.0336-0.0797-0.0487c-0.4286-0.1452-1.3022-0.3433-2.1384-0.3394l-0.2745-0.0312l0.2987-0.1351        l-0.2768-0.0938c-0.2479,0.1051-0.7374,0.2629-0.93,0.343c-0.0047,0.0021-0.0047,0.0021-0.0047,0.0021        c-0.1872,0.0493,0.0206,0.1743,0.0206,0.1743l-0.1966,0.0678c0,0-1.6377,0.2888-2.139,0.6498        c-0.2508,0.1842-0.6176,0.3289-1.0069,0.4697l-0.0641,0.0219c-0.5312,0.1909-1.1515,0.3443-1.8295,0.4745        c-1.0011,0.1916-1.427,0.4619-1.5574,0.5704c-0.0139,0.0063-0.0187,0.0155-0.0324,0.0217        c-0.005,0.0093-0.0052,0.0165-0.0189,0.0227c-0.1226,0.1332-0.1561,0.3108-0.0518,0.5462        c0.3041,0.703-1.472,0.7084-1.472,0.7084c-2.4443-0.0174-1.0085,0.3855-0.8058,0.647        c0.0561,0.0735,0.0946,0.1338,0.1201,0.1788l-0.0045,0.002c0.0087,0.0102,0.0084,0.0174,0.0123,0.0297        c0,0,0.0044,0.0051-0.0003,0.0072c0.0069,0.0604-0.022,0.1089-0.0409,0.1316c-0.0048,0.0092-0.014,0.0134-0.014,0.0134        c-0.0373,0.031-0.0791,0.0641-0.1299,0.0941c-0.108-0.0148-0.1982-0.0235-0.2929-0.03l-0.0134-0.001l-0.2245-0.0397        c-0.4463-0.0312-0.8758-0.0205-1.1723,0.05c-0.0865,0.0179-0.1733,0.043-0.2421,0.0742        c0.0709-0.5759-0.6955-0.752-0.6955-0.752c0.0878,0.1935,0.0965,0.3237-0.09,0.4788        c-0.1774,0.1579-1.0006,0.3044-0.4309,0.7812c0.5258,0.4474,1.2864,0.4141,1.6726,0.3523        c0.0089,0.003,0.0089,0.003,0.0089,0.003c0.4448,0.1944,1.0989,0.3506,1.9981,0.3534c0,0,0.9377,0.0632,1.0232-0.4205        c0,0-0.0003,0.0072-0.0232,0.0175c0.0048-0.0092,0.005-0.0164,0.0142-0.0206c0.0844-0.0806,0.1107-0.1772,0.0868-0.2724        c0.1078,0.022,0.2246,0.0397,0.306,0.0382c0.0536,0.0182,0.1072,0.0363,0.1563,0.0494        c0.1699,0.0503,0.3934,0.1188,0.6129,0.1678c0.0179,0.0061,0.0268,0.0091,0.0405,0.01        c0.0982,0.0333,0.224,0.0541,0.3592,0.0635c0.941,0.0971,2.5912-0.1691,3.2198-0.3052        c0.2232-0.0444,3.8694,0.8349,3.8694,0.8349s-0.0411-0.1157,0.4121-0.1512c0,0-4.4392-1.3117-4.6478-1.2951        c-0.2039,0.0145-0.4984,0.0348-0.8293,0.0643c-0.0212-0.0398-0.0244-0.0736-0.0142-0.1066        C44.2497,65.4055,45.8564,65.0954,45.8564,65.0954z" fill="#E1E9F4"/></g></g></g></g><g><g><g><path d="M47.7339,43.4141c0.0919-0.5266-0.1894-1.5432,0.7156-2.2251       c1.1961-0.9012,1.4602,0.8457,1.4602,0.8457s-0.7466-0.1871-1.2693,1.0705c-0.7284,1.7535-1.4482,1.5284-1.4482,1.5284       C47.4759,44.2422,47.6422,43.9402,47.7339,43.4141z" fill="#2A2A5E"/><g><g><g><g><g><g><g><path d="M48.9305,63.7722l-0.0241-0.3262l0.5018-0.7476l0.3519,0.7476              c-0.0483,0.7848,0.2849,1.0959,0.4999,1.4115c0.1366,0.2008,0.2557,0.3831,0.3023,0.4857l-1.0154,0.0466              c-0.1144-0.481-0.3031-0.5524-0.5843-0.8187C48.804,64.421,48.8221,64.1441,48.9305,63.7722z" fill="#ECB4BF"/><g><path d="M52.2091,63.702l-1.0154,0.0466c-0.1144-0.4812-0.2985-0.5574-0.5843-0.8187               c-0.3735-0.3414-0.2457-0.7457-0.0322-0.799l-0.0241-0.3261l0.5018-0.7476l0.3519,0.7476               c-0.0483,0.7849,0.2849,1.0958,0.4999,1.4116C52.0433,63.417,52.1624,63.5994,52.2091,63.702z" fill="#ECB4BF"/></g></g><path d="M48.9304,63.7721c0,0,0.1537,0.8341,0.725,1.2431c0.0192,0.0105,0.0432,0.0209,0.0672,0.0369             c0.0624,0.0366,0.1153,0.063,0.1584,0.0838c0.0625,0.0263,0.1201,0.042,0.1633,0.0525             c0.3313,0.0681,0.2156-0.3307,0.2156-0.3307c0.8739,0.8391,0.7879,1.2223,0.7399,1.3219             c-0.0048,0.021-0.0145,0.0316-0.0145,0.0316c-0.024,0.0366-0.0624,0.0576-0.1056,0.0576             c-0.4225-0.0054-1.1572-0.2359-1.6181-0.9283l-0.1873-0.1479l-0.003,0.5656h-0.2689             c-0.0096-0.4509-0.0834-1.2305-0.093-1.5767c0-0.005,0-0.005,0-0.0105C48.667,63.8993,48.9304,63.7721,48.9304,63.7721z" fill="#2A2A5E"/><path d="M50.5772,62.1308c0,0,0.1537,0.8341,0.725,1.2431c0.0192,0.0105,0.0432,0.0209,0.0672,0.0369             c0.0624,0.0366,0.1153,0.063,0.1585,0.0838c0.0624,0.0263,0.1201,0.042,0.1633,0.0525             c0.3313,0.0681,0.2156-0.3307,0.2156-0.3307c0.8739,0.8391,0.7879,1.2223,0.7399,1.3219             c-0.0048,0.021-0.0145,0.0316-0.0145,0.0316c-0.024,0.0366-0.0624,0.0576-0.1056,0.0576             c-0.4225-0.0054-1.1572-0.2359-1.6181-0.9283l-0.1873-0.1479l-0.003,0.5656h-0.2689             c-0.0096-0.4509-0.0834-1.2305-0.093-1.5767c0-0.005,0-0.005,0-0.0105C50.3137,62.258,50.5772,62.1308,50.5772,62.1308z" fill="#2A2A5E"/><g><path d="M50.4427,54.4953c0,0,1.9237-0.2169,2.0028-2.2024c0,0,0.78,2.7864,0.2961,4.288              c-0.3854,1.196-0.4638,1.7213-0.6483,2.2414c-0.1158,0.3262-0.1723,0.6696-0.2007,1.0145              c-0.0488,0.5916-0.1725,0.8128-0.4857,1.9677c0,0-0.5229,0.2336-0.8538,0c-0.0788-0.5647-0.118-1.1343-0.1173-1.7045              L50.4427,54.4953z" fill="#3A3A77"/><path d="M48.5239,58.1044c-0.0622-0.8854-0.2209-1.7595-0.4363-2.6205              c-0.4057-1.6213-0.1405-2.782-0.1405-2.782c3.9126,1.5601,4.4985-0.4089,4.4985-0.4089              c0.3349,1.9105-0.5308,2.7163-1.0816,3.0713c-0.2469,0.159-0.37,0.4506-0.3352,0.7422              c0.2422,2.0297-0.607,1.6855-0.8677,4.0775c-0.0575,0.5277-0.4009,3.2619-0.4009,3.2619              c-0.4812,0.3008-0.8538,0-0.8538,0s-0.5583-2.0151-0.3922-3.2893c0.0839-0.6438,0.0628-1.2971,0.0173-1.9447              L48.5239,58.1044z" fill="#4C4A8B"/></g><path d="M52.309,49.3848c0.3426-0.7875,1.351-1.1968,0.3809-2.3238             c-0.1862-0.2164,0.0704-0.7044-0.1509-1.3604c-0.143-0.4242-0.7059-0.4441-1.0317-0.4868             c-0.7898-0.103-2.0413,0.3813-2.0413,0.3813s-0.0336,0.1905-0.4697,0.6535c-0.4362,0.4631-1.7408,0.2584-0.3486,2.2044             c0,0,0.98,1.459-0.0565,2.8905c-0.645,0.8907-0.8006,1.6833-0.6393,2.387c0.103,0.4492,0.4962,0.7751,0.9553,0.8127             c1.2682,0.1033,3.8839,0.0461,3.5383-2.2506C52.4456,52.2927,51.9368,50.2411,52.309,49.3848z" fill="#B6CBEA"/></g></g><path d="M51.2994,45.2019c-0.093,0-0.248-0.1396-0.2273-0.2273c0.155-0.7025-1.4671-0.5786-1.4671-0.5786           s-0.0981,0.8522-0.1395,1.1984c0,0-0.0207,0.0982-0.1808,0.3098c0.217,0.1809,0.6076,0.1793,0.9485,0.1793           c0.2161,0,0.2872-0.1223,0.4606-0.2012c0.3448-0.1567,0.6159-0.2541,0.6159-0.5876           C51.3097,45.2638,51.3046,45.2329,51.2994,45.2019z" fill="#E0A4B2"/><g><g><path d="M50.6115,46.3721c0,0-0.9193-0.1461-1.3335-0.454c0.1546-0.2192,0.206-0.4789,0.206-0.4789             s0.6193,0.4553,1.2099,0.4431L50.6115,46.3721z" fill="#83A1CC"/></g><g><path d="M51.1569,46.1324c0,0,0.2292-0.4198,0.1998-0.9329c-0.1167-0.1695-0.4312-0.2268-0.4312-0.2268             s0.2142,0.7315-0.2316,0.9093L51.1569,46.1324z" fill="#83A1CC"/></g></g></g></g></g></g><g><path d="M50.3456,42.8129c0.4393,0.0115,0.7426-0.2738,0.9227-0.1461c0.487,0.3455,0.267,1.1455,0.1626,1.6532        c-0.1125,0.547-0.4732,1.0708-0.7014,1.2107c-0.1778,0.109-0.3993,0.1088-0.5834,0.0017        c-1.4127-0.8223-1.426-1.5579-1.426-1.5579S48.7187,42.7703,50.3456,42.8129z" fill="#ECB4BF"/><path d="M48.6226,42.6828c0.1557-0.4822,1.5798-1.8826,2.7639-0.2006c0,0,0.6015,0.607,0.0454,1.836        c0,0,0.3388-1.4239-0.3357-1.5006c-2.408-0.2738-1.5843,1.542-1.5843,1.542s-0.0948-0.2265-0.2373-0.475        c-0.1468-0.2502-0.479-0.0908-0.4547,0.1239c0.0199,0.2129,0.1725,0.2458,0.2796,0.4809        c0.0789,0.1734,0.2252,0.4501,0.2252,0.4501l-0.181-0.0947c-0.2918-0.2913-0.5174-0.6604-0.5983-1.0733        C48.4862,43.4685,48.4845,43.0991,48.6226,42.6828z" fill="#3A3A77"/></g></g></g></g><g><g><path d="M98.6439,65.2927l-0.0081,2.2682c0,0.2112-0.1381,0.4182-0.4102,0.5766L57.9326,91.553      c-0.5523,0.3208-1.4539,0.3169-2.0143-0.0079l-23.133-13.3564c-0.2802-0.1584-0.4224-0.3736-0.4183-0.5848l0.0081-2.2643      c0,0.2112,0.1421,0.4224,0.4182,0.5808l23.133,13.3564c0.5604,0.3208,1.466,0.3248,2.0143,0.004l40.293-23.4157      C98.5058,65.7069,98.6439,65.4997,98.6439,65.2927z" fill="#E1E9F4"/></g><g><path d="M106.66,71.3092v0.9068c0,0.0349-0.0175,0.0613-0.061,0.0873l-5.3708,3.1214      c-0.0784,0.0438-0.2092,0.0438-0.2877,0l-3.226-1.8659c-0.0348-0.0175-0.061-0.0519-0.061-0.0868l0.0087-0.9068      c0,0.0349,0.0175,0.0609,0.061,0.0869l3.2173,1.8659c0.0784,0.0438,0.218,0.0438,0.2964,0l4.3332-2.5198l1.0376-0.6015      C106.6425,71.3705,106.66,71.3441,106.66,71.3092z" fill="#E1E9F4"/></g><g><path d="M101.2947,80.652l-0.0031,0.7525c0,0.0891-0.0583,0.1813-0.1781,0.2518l-11.451,6.5764      c-0.2396,0.1383-0.6266,0.1383-0.8662,0l-6.6408-3.8764c-0.1167-0.0706-0.1751-0.1596-0.1751-0.2518v-0.7525      c0,0.0921,0.0614,0.1842,0.1781,0.2518l6.6408,3.8763c0.2396,0.1383,0.6266,0.1414,0.8662,0.0032l11.4479-6.5794      C101.2333,80.8332,101.2947,80.7441,101.2947,80.652z" fill="#E1E9F4"/></g><path d="M82.6445,87.9668l-11.451,6.5794c-0.2396,0.1351-0.6266,0.1351-0.8631,0l-6.6408-3.8764     c-0.1198-0.0706-0.1782-0.1629-0.1782-0.255l0.0031-0.7433c0,0.0891,0.0614,0.1782,0.1782,0.2457l6.6408,3.8764     c0.2365,0.1383,0.6236,0.1383,0.8631,0l11.4479-6.5794c0.1229-0.0676,0.1813-0.1597,0.1843-0.2488l-0.003,0.7495     C82.8258,87.807,82.7643,87.8992,82.6445,87.9668z" fill="#E1E9F4"/></g><path d="M98.6411,63.3596l-0.0081,2.2682c0,0.2112-0.1381,0.4182-0.4102,0.5766l-40.293,23.4155    c-0.5523,0.3208-1.4539,0.3169-2.0143-0.0079l-23.133-13.3564c-0.2802-0.1584-0.4224-0.3736-0.4183-0.5848l0.0081-2.2643    c0,0.2112,0.1421,0.4224,0.4182,0.5808l23.133,13.3564c0.5604,0.3208,1.466,0.3248,2.0143,0.004l40.293-23.4157    C98.503,63.7738,98.6411,63.5666,98.6411,63.3596z" fill="#83A1CC"/><path d="M98.2148,62.7644c0.56,0.3233,0.5682,0.8473,0.0168,1.1677L57.9388,87.3477    c-0.5512,0.3203-1.4558,0.3174-2.0159-0.0059L32.7911,73.9866c-0.5574-0.3218-0.5603-0.8428-0.0091-1.1632l40.2929-23.4157    c0.5513-0.3204,1.4507-0.3204,2.0081,0.0014L98.2148,62.7644z" fill="#B6CBEA"/><g><g><path d="M48.6623,78.1654c0.9154,0.5285,0.9203,1.3869,0.0107,1.9155c-0.9095,0.5285-2.39,0.5277-3.3055-0.0008      c-0.9154-0.5285-0.9203-1.3853-0.0108-1.9138C46.2663,77.6377,47.7468,77.6369,48.6623,78.1654z" fill="#FDFEFF"/></g></g><g><g><path d="M48.3315,78.3577c0.7317,0.4224,0.7355,1.1085,0.0086,1.531c-0.7269,0.4224-1.9102,0.4218-2.6419-0.0007      s-0.7355-1.1072-0.0086-1.5296C46.4166,77.936,47.5999,77.9353,48.3315,78.3577z" fill="#9EB5DF"/></g></g><g><g><path d="M81.3337,54.6474c0.1504,0.0868,0.1512,0.2275,0.0018,0.3143c-0.1494,0.0868-0.3923,0.0868-0.5427,0      c-0.153-0.0883-0.1538-0.229-0.0044-0.3158C80.9379,54.5591,81.1807,54.5591,81.3337,54.6474z" fill="#9EB5DF"/></g><g><polygon fill="#3A3A77" points="75.1941,76.2566 61.0522,84.4749 37.7285,71.009 51.8704,62.7907     "/></g><g><path d="M87.8831,58.4287c0.1504,0.0868,0.1512,0.2275,0.0018,0.3143c-0.1494,0.0868-0.3923,0.0868-0.5427,0      l-5.2737-3.0448c-0.1504-0.0868-0.1538-0.229-0.0044-0.3158s0.3949-0.0853,0.5453,0.0015L87.8831,58.4287z" fill="#9EB5DF"/></g></g><g><g><g enable-background="new    "><g><path d="M66.3808,71.0953l0.0015-0.5993c0.0015-0.0133,0.0015-0.025,0.0015-0.0368l-0.0015,0.5993        C66.3823,71.0717,66.3823,71.0835,66.3808,71.0953z" fill="#1E72C6"/><polygon fill="#1E72C6" points="61.5933,69.8598 61.3518,69.4327 61.3533,68.8318 61.5947,69.2604       "/><polygon fill="#1E72C6" points="66.7549,70.1764 66.2115,70.4944 66.2129,69.8951 66.7578,69.5755       "/><path d="M67.0759,70.7007l-0.0015,0.6008l-0.1811,0.4463l-0.7776,0.0029        c-0.0972,0.1207-0.2194,0.2341-0.3682,0.3387l-0.0029,0.5817l-0.673,0.2415l-0.5522-0.3166        c-0.3387,0.0692-0.6907,0.1016-1.0382,0.0957l-0.3519,0.4006l-0.7717-0.1061l-0.0074-0.4491        c-0.2901-0.0795-0.5626-0.187-0.7982-0.324c-0.0191-0.0103-0.0368-0.0221-0.056-0.0324l-0.7363,0.1384l-0.4182-0.3917        l0.0015-0.5993l0.4182,0.3902l0.7363-0.1384c0.0191,0.0118,0.0383,0.0221,0.056,0.0339        c0.2356,0.1355,0.5081,0.243,0.7996,0.324l0.0074,0.4477l0.7702,0.1075l0.352-0.4006        c0.3475,0.0059,0.6995-0.0265,1.0382-0.0957l0.5522,0.3152l0.43-0.1532l0.003-0.514        c0.2607-0.1443,0.4668-0.3121,0.6111-0.4948l0.7775-0.0029L67.0759,70.7007z" fill="#1E72C6"/><path d="M62.0145,71.0482l0.0015-0.6008c0.0015-0.296,0.2577-0.5847,0.726-0.7511        c0.617-0.2209,1.3946-0.1575,1.8879,0.1267c0.0825,0.0471,0.159,0.1015,0.2238,0.1634        c0.1561,0.1458,0.2297,0.3093,0.2297,0.4698l-0.0015,0.5993c0-0.1605-0.0736-0.3225-0.2297-0.4698        c-0.0663-0.0604-0.1414-0.1148-0.2253-0.1634c-0.4919-0.2842-1.2694-0.3475-1.8864-0.1266        C62.2722,70.4635,62.0159,70.7521,62.0145,71.0482z" fill="#1E72C6"/><path d="M60.7156,71.0069l-0.6907-0.2046l0.0015-0.6008l0.6921,0.2047v0.0692        c0.0044,0.1797,0.0589,0.3593,0.1694,0.5316l-0.0029,0.6008c-0.1149-0.1811-0.1708-0.3725-0.1694-0.5596V71.0069z" fill="#1E72C6"/></g></g><g><path d="M65.5054,71.6438l0.2414,0.4272l-0.6734,0.241l-0.5528-0.3159       c-0.3389,0.0695-0.6901,0.1015-1.0379,0.0956l-0.352,0.4006l-0.7709-0.1064l-0.0072-0.4489       c-0.291-0.0799-0.5628-0.1876-0.7985-0.3237c-0.019-0.011-0.0378-0.0221-0.0564-0.0335l-0.7358,0.139l-0.4192-0.3914       l0.5446-0.3197c-0.1239-0.1949-0.1785-0.3995-0.1693-0.6009l-0.6918-0.2046l0.1812-0.4462l0.775-0.0027       c0.147-0.1824,0.3523-0.3507,0.6129-0.4934l-0.2423-0.4278l0.6753-0.241l0.5519,0.3165       c0.3379-0.0711,0.6911-0.1021,1.0378-0.0966l0.3511-0.4001l0.7709,0.1064l0.0082,0.4495       c0.2906,0.0788,0.562,0.1872,0.796,0.3223c0.0192,0.0111,0.0382,0.0224,0.0569,0.0339l0.7387-0.1384l0.4174,0.3914       l-0.5437,0.3192c0.1239,0.196,0.1775,0.4001,0.1693,0.6009l0.6928,0.2052l-0.1812,0.4462l-0.7769,0.0027       C65.9723,71.3323,65.7661,71.5,65.5054,71.6438z M64.3587,71.2079c0.7211-0.2579,0.9392-0.8051,0.4945-1.2219       c-0.065-0.0608-0.1403-0.1154-0.2239-0.1637c-0.4926-0.2843-1.2708-0.3472-1.8873-0.1267       c-0.7211,0.2579-0.942,0.8034-0.4945,1.2219c0.0645,0.0602,0.1393,0.1145,0.2225,0.1625       C62.9617,71.3639,63.7419,71.4285,64.3587,71.2079" fill="#6B9EF9"/></g></g><g><g enable-background="new    "><g><path d="M66.0407,77.4306l0.0022-0.88c0.0022-0.0195,0.0022-0.0367,0.0022-0.0541l-0.0022,0.88        C66.0429,77.3959,66.0429,77.4132,66.0407,77.4306z" fill="#83A1CC"/><polygon fill="#83A1CC" points="59.011,75.6165 58.6564,74.9893 58.6586,74.1071 59.0132,74.7363       "/><polygon fill="#83A1CC" points="66.5899,76.0813 65.7921,76.5483 65.7942,75.6683 66.5943,75.1991       "/><path d="M67.0613,76.8511l-0.0022,0.8821l-0.266,0.6552l-1.1417,0.0043        c-0.1427,0.1773-0.3222,0.3438-0.5406,0.4973l-0.0043,0.8542l-0.9882,0.3545l-0.8109-0.4649        c-0.4973,0.1017-1.0141,0.1492-1.5244,0.1405l-0.5168,0.5882l-1.1331-0.1557l-0.0108-0.6595        c-0.426-0.1168-0.826-0.2746-1.172-0.4758c-0.0281-0.0151-0.0541-0.0324-0.0822-0.0475l-1.0812,0.2032l-0.6141-0.5752        l0.0022-0.88l0.6141,0.573l1.0812-0.2032c0.0281,0.0173,0.0562,0.0324,0.0822,0.0497c0.346,0.1989,0.746,0.3568,1.1741,0.4758        l0.0108,0.6573l1.1309,0.1578l0.5168-0.5882c0.5103,0.0087,1.0271-0.039,1.5244-0.1405l0.8109,0.4628l0.6314-0.2249        l0.0043-0.7547c0.3827-0.2119,0.6855-0.4583,0.8974-0.7265l1.1417-0.0043L67.0613,76.8511z" fill="#83A1CC"/><path d="M59.6294,77.3614l0.0022-0.8822c0.0022-0.4347,0.3784-0.8585,1.066-1.1028        c0.906-0.3243,2.0477-0.2313,2.7721,0.186c0.1211,0.0692,0.2335,0.1491,0.3287,0.24c0.2292,0.214,0.3373,0.4541,0.3373,0.6898        l-0.0022,0.88c0-0.2357-0.1081-0.4735-0.3373-0.6898c-0.0973-0.0887-0.2076-0.1686-0.3308-0.24        c-0.7222-0.4174-1.8639-0.5103-2.7699-0.1859C60.0079,76.5029,59.6316,76.9267,59.6294,77.3614z" fill="#83A1CC"/><path d="M57.7223,77.3008l-1.0141-0.3005l0.0022-0.8822l1.0163,0.3006v0.1016        c0.0065,0.2638,0.0865,0.5276,0.2487,0.7806l-0.0043,0.8822c-0.1686-0.266-0.2508-0.547-0.2487-0.8216V77.3008z" fill="#83A1CC"/></g></g><g><path d="M64.7554,78.236l0.3545,0.6273l-0.9888,0.3539l-0.8117-0.4639       c-0.4976,0.102-1.0134,0.1491-1.524,0.1403l-0.5168,0.5882l-1.132-0.1562l-0.0106-0.6592       c-0.4272-0.1173-0.8264-0.2755-1.1724-0.4753c-0.0279-0.0161-0.0556-0.0325-0.0828-0.0492l-1.0804,0.2041l-0.6156-0.5747       l0.7996-0.4695c-0.1819-0.2861-0.262-0.5866-0.2485-0.8824L56.71,76.119l0.266-0.6552l1.138-0.004       c0.2159-0.2678,0.5172-0.5149,0.9-0.7245l-0.3558-0.6281l0.9915-0.3539l0.8104,0.4647       c0.4962-0.1044,1.0147-0.1499,1.5239-0.1418l0.5155-0.5875l1.132,0.1562l0.012,0.66c0.4266,0.1156,0.8253,0.2748,1.1688,0.4732       c0.0282,0.0163,0.0561,0.0329,0.0836,0.0497l1.0846-0.2033l0.6128,0.5747l-0.7983,0.4687       c0.1819,0.2878,0.2606,0.5875,0.2485,0.8824l1.0173,0.3013l-0.266,0.6552l-1.1407,0.004       C65.4408,77.7785,65.1382,78.0248,64.7554,78.236z M63.0716,77.596c1.0588-0.3786,1.3791-1.1821,0.7261-1.7942       c-0.0954-0.0892-0.206-0.1695-0.3288-0.2403c-0.7232-0.4175-1.866-0.5098-2.7712-0.1861       c-1.0588,0.3786-1.3832,1.1797-0.726,1.7942c0.0946,0.0884,0.2046,0.1681,0.3267,0.2386       C61.0203,77.825,62.166,77.9198,63.0716,77.596" fill="#DEE7F8"/></g></g><g><g><g enable-background="new    "><g><path d="M52.6197,68.8242l0.0025-0.8813c-1.2749-0.1083-2.6086,0.0813-3.6654,0.5691l-0.0025,0.8814         C50.0111,68.9056,51.3448,68.7158,52.6197,68.8242z" fill="#6B9EF9"/><polygon fill="#6B9EF9" points="57.8787,67.9238 57.0164,68.7478 57.0139,69.6292 57.8762,68.805        "/><polygon fill="#6B9EF9" points="46.8334,68.7479 45.9646,67.9238 45.9621,68.805 46.8309,69.6292        "/><path d="M50.5994,69.9053c-0.3649,0.212-0.5477,0.4895-0.5485,0.7674l-0.0025,0.8813         c0.0008-0.2779,0.1836-0.5554,0.5485-0.7674c0.7338-0.4264,1.9268-0.4272,2.6654-0.0008         c0.3722,0.215,0.5578,0.4966,0.557,0.7777l0.0025-0.8813c0.0008-0.2812-0.1848-0.5629-0.5571-0.7777         c-0.0028-0.0016-0.0061-0.0026-0.0089-0.0042l0.416-0.9135c0.5911,0.1347,1.1468,0.3411,1.6245,0.6169         c0.3827,0.221,0.6839,0.4707,0.9113,0.7366l-1.1436,0.1771l-0.0009,0.3259c-0.0471,0.3095-0.2287,0.6126-0.5482,0.8777         l-0.0025,0.8813c0.3741-0.3103,0.5607-0.6728,0.5617-1.0365l0.0005-0.1691l1.5777-0.2442         c0.0359,0.1386,0.0537,0.2786,0.0533,0.4185l0.0025-0.8813c0.0004-0.1399-0.0174-0.2799-0.0533-0.4185l-0.286,0.0442         l0.0018-0.6532c-0.2359-0.3427-0.5927-0.6632-1.0718-0.9398c-0.4776-0.2758-1.0334-0.4822-1.6245-0.6169l-0.42,0.9223         l-0.0025,0.8707C52.5124,69.4789,51.3292,69.4812,50.5994,69.9053z" fill="#6B9EF9"/><path d="M48.1862,69.8396l1.1694,0.6752l0.0025-0.8814l-1.1693-0.6751         c-0.6807,0.4981-1.0227,1.1017-1.0244,1.7057l-0.0025,0.8813C47.1635,70.9414,47.5055,70.3378,48.1862,69.8396z" fill="#6B9EF9"/><path d="M48.7958,70.6678l-0.0023,0.8246l-1.2912,0.1999l-0.0025,0.8814l1.5908-0.2463         c0.151,0.1873,0.3612,0.3627,0.629,0.5173c0.2692,0.1554,0.5726,0.2766,0.8965,0.3635l0.0025-0.8814         c-0.3239-0.0868-0.6273-0.208-0.8965-0.3634c-0.2678-0.1547-0.478-0.3299-0.629-0.5173l-0.2861,0.0442l0.0019-0.6532         C48.8,70.7808,48.7956,70.7243,48.7958,70.6678z" fill="#6B9EF9"/><path d="M57.8955,71.399c-0.1504,0.4233-0.4357,0.8337-0.8574,1.2084l-0.0025,0.8813         c0.4217-0.3746,0.707-0.7851,0.8574-1.2084l1.6184-0.2288l0.0025-0.8813L57.8955,71.399z" fill="#6B9EF9"/><path d="M51.6707,72.4894l-0.42,0.9221l-0.0025,0.8813l0.4199-0.9222         c0.7213,0.0366,1.4597-0.0709,2.0761-0.322l1.1694,0.6751l0.0025-0.8813l-1.1693-0.6751         C53.1304,72.4185,52.392,72.5261,51.6707,72.4894z" fill="#6B9EF9"/><path d="M46.854,73.4879l0.0025-0.8813c-0.4273-0.3739-0.7172-0.7844-0.8709-1.2084l-1.6195-0.228         l-0.0069-0.986l-0.0025,0.8813l0.0069,0.986l1.6195,0.228C46.1368,72.7036,46.4267,73.1141,46.854,73.4879z" fill="#6B9EF9"/><path d="M55.2838,73.6269c-0.644,0.2446-1.3517,0.4112-2.0819,0.4997l-0.3896,0.9381l-1.7022-0.0007         l-0.3989-0.9374c-0.7326-0.0876-1.4422-0.2542-2.089-0.5006l-1.42,0.5021l-1.208-0.6974l-0.0025,0.8813l1.208,0.6974         l1.42-0.5021c0.6468,0.2463,1.3564,0.4129,2.089,0.5006l0.3988,0.9374l1.7022,0.0008l0.3897-0.9382         c0.7301-0.0885,1.4379-0.2551,2.0819-0.4997l1.4257,0.5006l1.1988-0.6967l0.0025-0.8813l-1.1988,0.6966L55.2838,73.6269z" fill="#6B9EF9"/></g></g></g><g><path d="M56.7095,74.1274l-1.4257-0.5005c-0.644,0.2447-1.3518,0.4113-2.0819,0.4998l-0.3896,0.9381       l-1.7022-0.0008l-0.3988-0.9374c-0.7326-0.0877-1.4422-0.2543-2.089-0.5005l-1.42,0.5021l-1.208-0.6974l0.8623-0.8242       c-0.4273-0.3738-0.7172-0.7843-0.871-1.2084l-1.6195-0.228l-0.0069-0.986l1.6183-0.2288       c0.1503-0.4232,0.4357-0.8337,0.856-1.2075l-0.8688-0.8242l1.1988-0.6967l1.4243,0.5014       c0.6454-0.2455,1.3531-0.4121,2.0833-0.5006l0.3896-0.9381l1.7022,0.0008l0.3989,0.9373       c0.7312,0.0885,1.4408,0.255,2.089,0.5005l1.42-0.5021l1.208,0.6974l-0.8623,0.8242c0.426,0.3746,0.7159,0.7851,0.871,1.2084       l1.6195,0.228l0.0069,0.986l-1.6183,0.2288c-0.1504,0.4233-0.4357,0.8337-0.8574,1.2084l0.8702,0.8234L56.7095,74.1274z        M50.5994,69.9053c-0.7338,0.4264-0.7313,1.1175,0.0073,1.5439c0.74,0.4272,1.9331,0.4264,2.6669,0       c0.7338-0.4264,0.7312-1.1175-0.0088-1.5447C52.5262,69.4781,51.3332,69.4788,50.5994,69.9053 M54.5149,71.721l1.1693,0.6751       c0.8387-0.6137,1.1618-1.3869,0.9705-2.125l-1.5908,0.2463C55.1284,70.9359,54.9464,71.3631,54.5149,71.721 M51.2507,73.4116       c1.2735,0.1092,2.6085-0.0813,3.6654-0.5691l-1.1693-0.6751c-0.6165,0.2511-1.3548,0.3587-2.0761,0.322L51.2507,73.4116        M50.1261,69.1871c0.6151-0.2519,1.3534-0.3579,2.076-0.322l0.4201-0.9222c-1.2749-0.1084-2.6086,0.0813-3.6654,0.5691       L50.1261,69.1871 M47.2181,71.0834l1.5907-0.2463c-0.0656-0.4177,0.1164-0.8465,0.5492-1.2036l-1.1693-0.6751       C47.3499,69.5721,47.0254,70.3461,47.2181,71.0834 M54.7799,69.9084l1.5908-0.2463c-0.2359-0.3427-0.5927-0.6632-1.0718-0.9397       c-0.4777-0.2758-1.0334-0.4822-1.6245-0.6169l-0.42,0.9222c0.3225,0.0877,0.6273,0.208,0.8951,0.3626       C54.4187,69.5458,54.6275,69.7219,54.7799,69.9084 M48.5726,72.6313c0.4791,0.2766,1.0334,0.4822,1.6259,0.6177l0.42-0.9222       c-0.3239-0.0868-0.6273-0.208-0.8965-0.3635c-0.2678-0.1546-0.478-0.33-0.629-0.5173l-1.5908,0.2463       C47.7368,72.0343,48.095,72.3555,48.5726,72.6313" fill="#A6C2FF"/></g></g></g><g><polygon fill="#DEE7F8" points="94.9568,64.7717 75.1941,76.2566 51.8704,62.7907 71.6331,51.3058    "/></g><g><path d="M76.0567,55.2962l-0.0027,1.3336c-0.0027,0.0928-0.0627,0.1883-0.1855,0.2592l-3.9111,2.272     c-0.2455,0.1445-0.6492,0.1445-0.8973,0l-3.9357-2.272c-0.1255-0.0709-0.1882-0.1663-0.1855-0.2618l0.0027-1.3338     c0,0.0955,0.0628,0.191,0.1882,0.2618l3.933,2.272c0.2482,0.1446,0.6518,0.1446,0.9001,0l3.9084-2.272     C75.9939,55.4844,76.0567,55.3889,76.0567,55.2962z" fill="#1E72C6"/><path d="M75.8689,55.034c0.249,0.1438,0.2504,0.377,0.0029,0.5208l-3.9099,2.2722     c-0.2474,0.1438-0.6501,0.1438-0.8991,0l-3.9338-2.2712c-0.249-0.1438-0.2503-0.377-0.0029-0.5208l3.9099-2.2722     c0.2474-0.1438,0.6501-0.1438,0.8991,0L75.8689,55.034z" fill="#A6C2FF"/><path d="M83.5346,59.6136l-0.0027,1.3336c-0.0027,0.0928-0.0627,0.1883-0.1855,0.2592l-3.9111,2.272     c-0.2455,0.1445-0.6492,0.1445-0.8973,0l-3.9357-2.272c-0.1255-0.0708-0.1882-0.1663-0.1855-0.2618l0.0027-1.3338     c0,0.0955,0.0628,0.191,0.1882,0.2618l3.933,2.272c0.2482,0.1446,0.6518,0.1446,0.9001,0l3.9084-2.272     C83.4718,59.8017,83.5346,59.7063,83.5346,59.6136z" fill="#1E72C6"/><path d="M83.3468,59.3514c0.249,0.1438,0.2504,0.377,0.0029,0.5208l-3.9099,2.2722     c-0.2474,0.1438-0.6501,0.1438-0.8991,0l-3.9338-2.2712c-0.249-0.1438-0.2503-0.377-0.0029-0.5208l3.9099-2.2722     c0.2474-0.1438,0.6501-0.1438,0.8991,0L83.3468,59.3514z" fill="#A6C2FF"/><path d="M91.0125,63.9309l-0.0027,1.3336c-0.0027,0.0928-0.0627,0.1883-0.1855,0.2592l-3.9111,2.272     c-0.2455,0.1445-0.6492,0.1445-0.8973,0l-3.9357-2.272c-0.1255-0.0708-0.1882-0.1663-0.1855-0.2618l0.0027-1.3338     c0,0.0955,0.0628,0.191,0.1882,0.2618l3.933,2.272c0.2482,0.1446,0.6518,0.1446,0.9001,0l3.9084-2.272     C90.9498,64.1191,91.0125,64.0236,91.0125,63.9309z" fill="#1E72C6"/><path d="M90.8247,63.6688c0.249,0.1438,0.2504,0.377,0.0029,0.5208l-3.9099,2.2722     c-0.2474,0.1438-0.6501,0.1438-0.8991,0l-3.9338-2.2712c-0.249-0.1438-0.2503-0.377-0.0029-0.5208l3.9099-2.2722     c0.2474-0.1438,0.6501-0.1438,0.8991,0L90.8247,63.6688z" fill="#A6C2FF"/><g><g><polygon fill="#3887E5" points="88.0633,63.6746 86.3556,64.667 86.727,64.8814 87.7895,64.2639 88.1889,64.4945        87.1263,65.112 87.3505,65.2414 87.246,65.3021 84.0863,63.4778 84.1884,63.4185 84.4126,63.5479 86.1226,62.5542        86.522,62.7847 84.8119,63.7785 85.1809,63.9915 86.5683,63.1853 86.9677,63.4158 85.5802,64.2221 85.9586,64.4378        87.6663,63.4454      "/></g><g><path d="M87.246,65.3021l0.1045-0.0607l-0.2242-0.1294l1.0625-0.6175l-0.3994-0.2306l-1.0625,0.6175       l-0.3713-0.2144l1.7076-0.9924l-0.397-0.2292l-1.7076,0.9924l-0.3784-0.2157l1.3874-0.8063l-0.3993-0.2306l-1.3874,0.8063       l-0.369-0.213l1.71-0.9938l-0.3994-0.2306l-1.71,0.9938l-0.2242-0.1294l-0.1021,0.0593L87.246,65.3021" fill="#3887E5"/></g></g><g><g enable-background="new    "><g><path d="M81.2361,59.8061c0.1401,0.0809,0.1432,0.2144,0.004,0.2953l-1.4107,0.8198        c-0.1415,0.0822-0.3719,0.0809-0.512,0l-2.6016-1.502c-0.1424-0.0822-0.1432-0.2144-0.0017-0.2966l1.4107-0.8198        c0.1392-0.0809,0.3674-0.0809,0.5098,0.0014l0.4951,0.2858l0.4954-0.0796c0.1279-0.0202,0.2607,0,0.3541,0.0539l0.8034,0.4638        c0.0911,0.0526,0.1288,0.1308,0.0919,0.2036l-0.1357,0.2872L81.2361,59.8061z M78.346,59.9787        c0.411,0.2373,1.079,0.236,1.4874-0.0013c0.4107-0.2387,0.4086-0.6243-0.0024-0.8616        c-0.4134-0.2387-1.0791-0.2386-1.4899,0.0001C77.9328,59.3531,77.9326,59.7401,78.346,59.9787" fill="#FFFFFF"/></g><g><path d="M79.8294,60.9212l1.4107-0.8198c0.1392-0.0809,0.1361-0.2144-0.004-0.2953l-0.4974-0.2872        l0.1357-0.2872c0.0368-0.0728-0.0009-0.151-0.0919-0.2036l-0.8034-0.4638c-0.0934-0.0539-0.2262-0.0742-0.3541-0.0539        L79.1296,58.59l-0.4951-0.2858c-0.1424-0.0822-0.3706-0.0823-0.5098-0.0014l-1.4107,0.8198        c-0.1415,0.0822-0.1407,0.2144,0.0017,0.2966l2.6016,1.502C79.4575,61.0021,79.6879,61.0034,79.8294,60.9212" fill="#FFFFFF"/></g><g><path d="M79.8315,59.9757c-0.4067,0.2394-1.0751,0.2394-1.4874,0.0054        c-0.4122-0.2394-0.4122-0.6294-0.0056-0.8634c0.4122-0.2396,1.0807-0.2396,1.4929,0        C80.2438,59.3517,80.2438,59.7361,79.8315,59.9757z" fill="#1E72C6"/></g><g><path d="M79.5502,59.279c0.2569,0.1483,0.2583,0.3883,0.003,0.5366c-0.2552,0.1483-0.6696,0.1483-0.9265,0        c-0.2569-0.1483-0.2605-0.3897-0.0054-0.538C78.8766,59.1293,79.2933,59.1307,79.5502,59.279z" fill="#6B9EF9"/></g></g></g><g><g><path d="M72.9849,56.1528c-0.814,0.4727-2.1446,0.4727-2.9632,0c-0.8184-0.4727-0.8228-1.2432-0.0087-1.7157       c0.8141-0.4727,2.1447-0.4727,2.9631,0C73.7947,54.9096,73.7991,55.6801,72.9849,56.1528z" fill="#4C4A8B"/></g><g><polygon fill="#FFFFFF" points="71.7705,54.5266 72.4493,55.8447 70.1715,55.4558      "/></g></g></g><g><path d="M63.0398,51.8088l-0.0027,1.3336c-0.0027,0.0928-0.0627,0.1883-0.1855,0.2592l-3.9111,2.272     c-0.2455,0.1445-0.6492,0.1445-0.8973,0l-3.9357-2.272c-0.1255-0.0709-0.1882-0.1663-0.1855-0.2618l0.0027-1.3338     c0,0.0955,0.0628,0.191,0.1882,0.2618l3.933,2.272c0.2482,0.1446,0.6518,0.1446,0.9001,0l3.9084-2.272     C62.9771,51.997,63.0398,51.9015,63.0398,51.8088z" fill="#1E72C6"/><path d="M62.852,51.5467c0.249,0.1438,0.2503,0.377,0.0029,0.5208l-3.9099,2.2722     c-0.2474,0.1438-0.6501,0.1438-0.8991,0l-3.9338-2.2712c-0.249-0.1438-0.2503-0.377-0.0029-0.5208l3.9099-2.2722     c0.2474-0.1438,0.6501-0.1438,0.8991,0L62.852,51.5467z" fill="#A6C2FF"/><g><g><g><path d="M60.5226,52.0101l-1.8148,0.7426c-0.1959,0.0557-0.4787,0.0174-0.6877-0.1033        c-0.2512-0.145-0.3005-0.3516-0.1128-0.4607c0.1897-0.1102,0.5445-0.0812,0.7957,0.0638        c0.1166,0.0673,0.1892,0.1485,0.2156,0.2263l0.9874-0.4038l-1.1617-0.6707l-1.3911,0.5663        c-0.1979,0.0545-0.4787,0.0174-0.6897-0.1044c-0.2492-0.1439-0.2985-0.3504-0.1107-0.4595        c0.1897-0.1102,0.5444-0.0812,0.7936,0.0626c0.1186,0.0685,0.1912,0.1497,0.2176,0.2298l1.4151-0.5802L60.5226,52.0101z" fill="#FFFFFF"/></g></g></g><g><g><g><path d="M58.7325,44.4391v-1.7136c0-0.1129-0.0919-0.2048-0.2048-0.2048        c-0.1129,0-0.2048,0.0919-0.2048,0.2048v1.899c0,0.1129,0.0919,0.2048,0.2048,0.2048c0.3718,0,0.6743,0.3024,0.6743,0.6743        c0,0.3718-0.3024,0.6742-0.6743,0.6742c-0.2389,0-0.4552-0.1224-0.5784-0.3276c-0.0585-0.0967-0.1844-0.1282-0.2812-0.0699        c-0.0966,0.0582-0.1281,0.1842-0.07,0.2811c0.1951,0.3244,0.5512,0.5259,0.9295,0.5259c0.5977,0,1.0839-0.4862,1.0839-1.0838        C59.6116,44.9836,59.2376,44.5361,58.7325,44.4391z" fill="#4C4A8B"/><g><path d="M59.4153,41.8972c-0.5133,0.2983-1.3482,0.2983-1.8648,0c-0.2599-0.1501-0.3897-0.347-0.3892-0.5437         l-0.0005,1.1488c-0.0003,0.7284,0.5901,1.319,1.3186,1.319c0.728,0,1.3182-0.59,1.3185-1.318l0.0005-1.1423         C59.7978,41.5552,59.6702,41.7491,59.4153,41.8972z" fill="#1E72C6"/><g><path d="M59.409,40.8172c0.5166,0.2983,0.5196,0.7818,0.0063,1.08c-0.5133,0.2983-1.3481,0.2983-1.8648,0          c-0.5167-0.2983-0.5192-0.7817-0.0059-1.08C58.0579,40.5189,58.8924,40.5189,59.409,40.8172z" fill="#A6C2FF"/></g></g><g><g><path d="M58.8634,37.5358l-0.0003,3.6983c-0.0002,0.0565-0.0373,0.1129-0.1115,0.156          c-0.1493,0.0868-0.3922,0.0868-0.5426,0c-0.0756-0.0437-0.1134-0.101-0.1132-0.1582l0.0003-3.6983          c-0.0002,0.0572,0.0376,0.1145,0.1132,0.1582c0.1503,0.0868,0.3932,0.0868,0.5426,0          C58.8261,37.6487,58.8632,37.5923,58.8634,37.5358z" fill="#1E72C6"/></g></g></g><g><g><g><g enable-background="new    "><g><polygon fill="#1E72C6" points="30.5521,18.4214 30.5651,23.0063 31.2969,24.4098 31.2839,19.8249           "/></g><g><polygon fill="#3887E5" points="31.2839,19.8249 31.2969,24.4098 33.5199,25.7017 33.5069,21.1167           "/></g><g><polygon fill="#6B9EF9" points="33.5069,21.1167 33.5199,25.7017 37.7565,23.2557 37.7435,18.6707           "/></g><g><polygon fill="#A6C2FF" points="30.5521,18.4214 31.2839,19.8249 33.5069,21.1167 37.7435,18.6707 35.5205,17.3789             33.099,16.9509           "/></g></g></g><g><g enable-background="new    "><g><polygon fill="#3887E5" points="60.5805,36.6655 36.1856,22.4887 36.1873,23.0949 60.5822,37.2717           "/></g><g><polygon fill="#A6C2FF" points="61.109,36.3603 36.7141,22.1836 36.1856,22.4887 60.5805,36.6655           "/></g><g><polygon fill="#3887E5" points="60.5805,36.6655 60.5822,37.2717 61.1108,36.9666 61.109,36.3603           "/></g></g><g><g enable-background="new    "><g><polygon fill="#A6C2FF" points="60.1831,36.4324 59.8086,36.2147 58.1107,37.195 58.4851,37.4127            "/></g><g><polygon fill="#1E72C6" points="60.1776,34.4813 59.8031,34.2637 59.8086,36.2147 60.1831,36.4324            "/></g><g><polygon fill="#1E72C6" points="58.0473,35.2152 57.6728,34.9976 57.6811,37.939 58.0556,38.1566            "/></g><g><polygon fill="#A6C2FF" points="60.6071,33.7373 60.2326,33.5197 57.6728,34.9976 58.0473,35.2152            "/></g><g><path d="M60.6154,36.6787l-2.5598,1.4779l-0.0083-2.9414l2.5598-1.4779L60.6154,36.6787z              M58.4851,37.4127l1.6979-0.9803l-0.0055-1.951l-1.6979,0.9803L58.4851,37.4127" fill="#3887E5"/></g></g></g><g><g enable-background="new    "><g><polygon fill="#A6C2FF" points="56.1173,34.0696 55.7428,33.8519 54.0449,34.8323 54.4193,35.0499            "/></g><g><polygon fill="#1E72C6" points="56.1117,32.1185 55.7373,31.9009 55.7428,33.8519 56.1173,34.0696            "/></g><g><polygon fill="#1E72C6" points="53.9814,32.8524 53.607,32.6348 53.6153,35.5762 53.9898,35.7938            "/></g><g><polygon fill="#A6C2FF" points="56.5413,31.3745 56.1668,31.1569 53.607,32.6348 53.9814,32.8524            "/></g><g><path d="M56.5496,34.3159l-2.5598,1.4779l-0.0083-2.9414l2.5598-1.4779L56.5496,34.3159z              M54.4193,35.0499l1.6979-0.9803l-0.0055-1.951l-1.6979,0.9803L54.4193,35.0499" fill="#3887E5"/></g></g></g><g><g enable-background="new    "><g><polygon fill="#A6C2FF" points="52.0514,31.7068 51.677,31.4891 49.979,32.4695 50.3535,32.6871            "/></g><g><polygon fill="#1E72C6" points="52.0459,29.7557 51.6715,29.5381 51.677,31.4891 52.0514,31.7068            "/></g><g><polygon fill="#1E72C6" points="49.9156,30.4896 49.5412,30.272 49.5495,33.2134 49.924,33.431            "/></g><g><polygon fill="#A6C2FF" points="52.4754,29.0117 52.101,28.7941 49.5412,30.272 49.9156,30.4896            "/></g><g><path d="M52.4838,31.9531L49.924,33.431l-0.0083-2.9414l2.5598-1.4779L52.4838,31.9531z M50.3535,32.6871             l1.6979-0.9803l-0.0055-1.951L50.348,30.736L50.3535,32.6871" fill="#3887E5"/></g></g></g><g><g enable-background="new    "><g><polygon fill="#A6C2FF" points="47.9856,29.344 47.6112,29.1263 45.9132,30.1067 46.2877,30.3243            "/></g><g><polygon fill="#1E72C6" points="47.9801,27.3929 47.6056,27.1753 47.6112,29.1263 47.9856,29.344            "/></g><g><polygon fill="#1E72C6" points="45.8498,28.1268 45.4753,27.9092 45.4837,30.8506 45.8581,31.0682            "/></g><g><polygon fill="#A6C2FF" points="48.4096,26.6489 48.0351,26.4313 45.4753,27.9092 45.8498,28.1268            "/></g><g><path d="M48.4179,29.5903l-2.5598,1.4779l-0.0083-2.9414l2.5598-1.4779L48.4179,29.5903z              M46.2877,30.3243l1.6979-0.9803l-0.0055-1.951l-1.6979,0.9803L46.2877,30.3243" fill="#3887E5"/></g></g></g><g><g enable-background="new    "><g><polygon fill="#A6C2FF" points="43.9198,26.9812 43.5453,26.7635 41.8474,27.7439 42.2219,27.9615            "/></g><g><polygon fill="#1E72C6" points="43.9143,25.0301 43.5398,24.8125 43.5453,26.7635 43.9198,26.9812            "/></g><g><polygon fill="#1E72C6" points="41.784,25.764 41.4095,25.5464 41.4179,28.4878 41.7923,28.7054            "/></g><g><polygon fill="#A6C2FF" points="44.3438,24.2861 43.9693,24.0685 41.4095,25.5464 41.784,25.764            "/></g><g><path d="M44.3521,27.2275l-2.5598,1.4779L41.784,25.764l2.5598-1.4779L44.3521,27.2275z M42.2219,27.9615             l1.6979-0.9803l-0.0055-1.951l-1.6979,0.9803L42.2219,27.9615" fill="#3887E5"/></g></g></g><g><g enable-background="new    "><g><polygon fill="#A6C2FF" points="39.854,24.6184 39.4795,24.4007 37.7816,25.3811 38.156,25.5987            "/></g><g><polygon fill="#1E72C6" points="39.8484,22.6673 39.474,22.4497 39.4795,24.4007 39.854,24.6184            "/></g><g><polygon fill="#1E72C6" points="37.7182,23.4012 37.3437,23.1836 37.352,26.125 37.7265,26.3426            "/></g><g><polygon fill="#A6C2FF" points="40.278,21.9233 39.9035,21.7057 37.3437,23.1836 37.7182,23.4012            "/></g><g><path d="M40.2863,24.8647l-2.5598,1.4779l-0.0083-2.9414l2.5598-1.4779L40.2863,24.8647z M38.156,25.5987             l1.6979-0.9803l-0.0055-1.951l-1.6979,0.9803L38.156,25.5987" fill="#3887E5"/></g></g></g><g enable-background="new    "><g><polygon fill="#3887E5" points="58.5492,37.8382 34.1543,23.6615 34.156,24.2677 58.551,38.4445           "/></g><g><polygon fill="#A6C2FF" points="59.0769,37.5336 34.6819,23.3568 34.1543,23.6615 58.5492,37.8382           "/></g><g><polygon fill="#3887E5" points="58.5492,37.8382 58.551,38.4445 59.0786,38.1399 59.0769,37.5336           "/></g></g><g enable-background="new    "><g><polygon fill="#3887E5" points="58.5426,35.5031 34.1477,21.3263 34.1494,21.9326 58.5443,36.1094           "/></g><g><polygon fill="#A6C2FF" points="59.0702,35.1984 34.6753,21.0217 34.1477,21.3263 58.5426,35.5031           "/></g><g><polygon fill="#3887E5" points="58.5426,35.5031 58.5443,36.1094 59.072,35.8047 59.0702,35.1984           "/></g></g><g enable-background="new    "><g><polygon fill="#3887E5" points="60.5739,34.3303 36.179,20.1535 36.1807,20.7598 60.5756,34.9366           "/></g><g><polygon fill="#A6C2FF" points="61.1024,34.0252 36.7075,19.8484 36.179,20.1535 60.5739,34.3303           "/></g><g><polygon fill="#3887E5" points="60.5739,34.3303 60.5756,34.9366 61.1041,34.6315 61.1024,34.0252           "/></g></g></g></g><g><g><g enable-background="new    "><g><polygon fill="#3887E5" points="38.3539,61.297 43.3488,58.3453 43.334,55.0916 38.3392,58.0433           "/></g><polygon fill="#6B9EF9" points="37.9502,52.0353 32.9554,54.9868 38.3392,58.0434 43.334,55.0917          "/><polygon fill="#A6C2FF" points="38.3391,58.0433 32.9554,54.987 32.97,58.2406 38.3539,61.2969          "/></g></g><g><g enable-background="new    "><g><polygon fill="#3887E5" points="37.9974,26.1935 38.1251,54.4085 38.647,54.1001 38.5193,25.8851           "/></g><g><polygon fill="#A6C2FF" points="37.4666,25.8922 37.5943,54.1072 38.1251,54.4085 37.9974,26.1935           "/></g><g><polygon fill="#3887E5" points="37.9974,26.1935 38.5193,25.8851 37.9885,25.5838 37.4666,25.8922           "/></g></g><g><g enable-background="new    "><g><polygon fill="#A6C2FF" points="37.9976,26.6543 37.9995,27.0874 39.7046,28.0554 39.7027,27.6223            "/></g><g><polygon fill="#1E72C6" points="36.318,27.6468 36.32,28.0799 37.9995,27.0874 37.9976,26.6543            "/></g><g><polygon fill="#1E72C6" points="38.0295,29.1124 38.0315,29.5455 40.5636,28.0491 40.5617,27.616            "/></g><g><polygon fill="#A6C2FF" points="35.459,27.6531 35.4609,28.0862 38.0315,29.5455 38.0295,29.1124            "/></g><g><path d="M37.9911,26.1567l2.5706,1.4593l-2.5322,1.4963l-2.5706-1.4593L37.9911,26.1567z              M39.7027,27.6223l-1.7051-0.968l-1.6796,0.9925l1.7051,0.968L39.7027,27.6223" fill="#3887E5"/></g></g></g><g><g enable-background="new    "><g><polygon fill="#A6C2FF" points="38.0189,31.3568 38.0208,31.7899 39.7259,32.7579 39.7239,32.3248            "/></g><g><polygon fill="#1E72C6" points="36.3393,32.3493 36.3412,32.7824 38.0208,31.7899 38.0189,31.3568            "/></g><g><polygon fill="#1E72C6" points="38.0508,33.8149 38.0528,34.248 40.5849,32.7516 40.583,32.3185            "/></g><g><polygon fill="#A6C2FF" points="35.4802,32.3556 35.4822,32.7887 38.0528,34.248 38.0508,33.8149            "/></g><g><path d="M38.0124,30.8592l2.5706,1.4593l-2.5322,1.4963l-2.5706-1.4593L38.0124,30.8592z              M39.7239,32.3248l-1.7051-0.968l-1.6796,0.9925l1.7051,0.968L39.7239,32.3248" fill="#3887E5"/></g></g></g><g><g enable-background="new    "><g><polygon fill="#A6C2FF" points="38.0401,36.0593 38.0421,36.4924 39.7472,37.4603 39.7452,37.0273            "/></g><g><polygon fill="#1E72C6" points="36.3606,37.0518 36.3625,37.4849 38.0421,36.4924 38.0401,36.0593            "/></g><g><polygon fill="#1E72C6" points="38.0721,38.5174 38.074,38.9505 40.6062,37.4541 40.6042,37.021            "/></g><g><polygon fill="#A6C2FF" points="35.5015,37.0581 35.5035,37.4912 38.074,38.9505 38.0721,38.5174            "/></g><g><path d="M38.0337,35.5617l2.5706,1.4593l-2.5322,1.4963l-2.5706-1.4593L38.0337,35.5617z              M39.7452,37.0273l-1.7051-0.968l-1.6796,0.9925l1.7051,0.968L39.7452,37.0273" fill="#3887E5"/></g></g></g><g><g enable-background="new    "><g><polygon fill="#A6C2FF" points="38.0614,40.7618 38.0634,41.1949 39.7685,42.1628 39.7665,41.7297            "/></g><g><polygon fill="#1E72C6" points="36.3819,41.7543 36.3838,42.1874 38.0634,41.1949 38.0614,40.7618            "/></g><g><polygon fill="#1E72C6" points="38.0934,43.2199 38.0953,43.653 40.6275,42.1566 40.6255,41.7235            "/></g><g><polygon fill="#A6C2FF" points="35.5228,41.7606 35.5248,42.1937 38.0953,43.653 38.0934,43.2199            "/></g><g><path d="M38.055,40.2642l2.5706,1.4593l-2.5322,1.4963l-2.5706-1.4593L38.055,40.2642z M39.7665,41.7297             l-1.7051-0.968l-1.6796,0.9925l1.7051,0.968L39.7665,41.7297" fill="#3887E5"/></g></g></g><g><g enable-background="new    "><g><polygon fill="#A6C2FF" points="38.0827,45.4643 38.0847,45.8974 39.7898,46.8653 39.7878,46.4322            "/></g><g><polygon fill="#1E72C6" points="36.4031,46.4568 36.4051,46.8899 38.0847,45.8974 38.0827,45.4643            "/></g><g><polygon fill="#1E72C6" points="38.1146,47.9224 38.1166,48.3555 40.6488,46.8591 40.6468,46.426            "/></g><g><polygon fill="#A6C2FF" points="35.5441,46.4631 35.546,46.8962 38.1166,48.3555 38.1146,47.9224            "/></g><g><path d="M38.0763,44.9667l2.5706,1.4593l-2.5322,1.4963l-2.5706-1.4593L38.0763,44.9667z              M39.7878,46.4322l-1.7051-0.968l-1.6796,0.9925l1.7051,0.968L39.7878,46.4322" fill="#3887E5"/></g></g></g><g><g enable-background="new    "><g><polygon fill="#A6C2FF" points="38.104,50.1668 38.106,50.5999 39.811,51.5678 39.8091,51.1347            "/></g><g><polygon fill="#1E72C6" points="36.4244,51.1593 36.4264,51.5924 38.106,50.5999 38.104,50.1668            "/></g><g><polygon fill="#1E72C6" points="38.1359,52.6249 38.1379,53.058 40.6701,51.5616 40.6681,51.1285            "/></g><g><polygon fill="#A6C2FF" points="35.5654,51.1656 35.5673,51.5987 38.1379,53.058 38.1359,52.6249            "/></g><g><path d="M38.0975,49.6692l2.5706,1.4593l-2.5322,1.4963l-2.5706-1.4593L38.0975,49.6692z              M39.8091,51.1347l-1.7051-0.968l-1.6796,0.9925l1.7051,0.968L39.8091,51.1347" fill="#3887E5"/></g></g></g><g enable-background="new    "><g><polygon fill="#3887E5" points="40.0372,27.3515 40.1649,55.5665 40.6868,55.2581 40.5591,27.0431           "/></g><g><polygon fill="#A6C2FF" points="39.5074,27.0507 39.635,55.2657 40.1649,55.5665 40.0372,27.3515           "/></g><g><polygon fill="#3887E5" points="40.0372,27.3515 40.5591,27.0431 40.0293,26.7423 39.5074,27.0507           "/></g></g><g enable-background="new    "><g><polygon fill="#3887E5" points="38.0269,28.5395 38.1546,56.7544 38.6766,56.446 38.5489,28.231           "/></g><g><polygon fill="#A6C2FF" points="37.4971,28.2387 37.6248,56.4537 38.1546,56.7544 38.0269,28.5395           "/></g><g><polygon fill="#3887E5" points="38.0269,28.5395 38.5489,28.231 38.019,27.9302 37.4971,28.2387           "/></g></g><g enable-background="new    "><g><polygon fill="#3887E5" points="35.9871,27.3815 36.1148,55.5964 36.6367,55.288 36.5091,27.073           "/></g><g><polygon fill="#A6C2FF" points="35.4564,27.0802 35.584,55.2951 36.1148,55.5964 35.9871,27.3815           "/></g><g><polygon fill="#3887E5" points="35.9871,27.3815 36.5091,27.073 35.9783,26.7717 35.4564,27.0802           "/></g></g></g></g><g><g enable-background="new    "><g><polygon fill="#3887E5" points="38.9187,28.1053 42.0207,26.3026 42.018,27.2578 38.916,29.0605          "/></g><g><polygon fill="#6B9EF9" points="36.424,23.7747 39.526,21.972 42.0207,26.3026 38.9187,28.1053          "/></g><polygon fill="#DEE7F8" points="36.8763,23.8955 39.4047,22.4261 41.5682,26.1819 39.0398,27.6513         "/><g><polygon fill="#A6C2FF" points="34.6346,22.7416 37.7366,20.9389 39.526,21.972 36.424,23.7747          "/></g><g><polygon fill="#1E72C6" points="36.424,23.7747 38.9187,28.1053 38.916,29.0605 34.6237,26.5823 34.6346,22.7416                     "/></g><polygon fill="#DEE7F8" points="36.181,24.0175 35.6196,23.6933 35.6196,26.7745 38.5864,28.487 38.5869,28.1937                   "/></g></g></g></g><path d="M62.2506,51.8489l-3.5672-5.9641c-0.0883-0.159-0.3171-0.159-0.4054,0l-3.5668,5.9616      c-0.0311,0.052-0.0149,0.1194,0.0366,0.1515h0c0.0528,0.033,0.1224,0.0161,0.1543-0.0373l3.5785-5.9837l3.579,5.9861      c0.032,0.0534,0.1015,0.0702,0.1544,0.0373C62.2655,51.9683,62.2817,51.9009,62.2506,51.8489z" fill="#4C4A8B"/></g></g><g><g><path d="M101.2947,80.0319l-0.0031,0.7525c0,0.0891-0.0583,0.1813-0.1781,0.2518l-11.451,6.5764      c-0.2396,0.1383-0.6266,0.1383-0.8662,0l-6.6408-3.8764c-0.1167-0.0706-0.1751-0.1596-0.1751-0.2518v-0.7525      c0,0.0921,0.0614,0.1842,0.1781,0.2518l6.6408,3.8763c0.2396,0.1383,0.6266,0.1414,0.8662,0.0032l11.4479-6.5794      C101.2333,80.213,101.2947,80.1239,101.2947,80.0319z" fill="#83A1CC"/></g><g><path d="M94.4808,75.9057l6.6367,3.8746c0.2373,0.1393,0.2366,0.3646-0.0031,0.5039l-11.449,6.5785      c-0.2404,0.1374-0.6268,0.137-0.8663-0.0013l-6.6402-3.8767c-0.2374-0.1392-0.2367-0.3646,0.0029-0.5038l11.4492-6.5785      C93.8526,75.7642,94.2396,75.7665,94.4808,75.9057z" fill="#B6CBEA"/></g><g><g><polygon fill="#FFFFFF" points="91.6509,80.2478 91.0431,81.6393 89.2506,80.6045      "/></g><g enable-background="new    "><g><path d="M92.4036,79.7569c0.9974,0.5826,0.9948,1.511,0.003,2.0806c-0.9882,0.5675-2.5829,0.5651-3.5703-0.005        c-0.9973-0.5827-0.9947-1.5111-0.0029-2.0807C89.8215,79.1844,91.4161,79.1868,92.4036,79.7569z M89.2506,80.6045        l1.7924,1.0349l0.6079-1.3915L89.2506,80.6045" fill="#C97F94"/></g><g><polygon fill="#FFFFFF" points="93.5849,83.1521 94.0673,83.4329 92.1383,84.5402 91.656,84.2594       "/></g><g><polygon fill="#FFFFFF" points="98.2493,79.4031 98.7298,79.685 95.1914,81.7164 94.711,81.4367       "/></g><g><polygon fill="#FFFFFF" points="93.9121,81.8941 94.3945,82.1749 88.6778,85.4608 88.1953,85.18       "/></g><g><polygon fill="#FFFFFF" points="91.0714,84.5968 91.5519,84.8765 89.5976,86.0009 89.1171,85.7189       "/></g></g><g><polygon fill="#FFFFFF" points="97.1739,81.0891 97.6564,81.3699 94.8642,82.9743 94.3818,82.6935      "/></g></g></g><g><g enable-background="new    "><g><path d="M76.0118,82.2172l6.6367,3.8745c0.2392,0.1404,0.2386,0.3658-0.0031,0.5039l-11.4491,6.5785       c-0.2404,0.1375-0.6268,0.137-0.8644-0.0001l-6.6402-3.8767c-0.2393-0.1404-0.2386-0.3657,0.003-0.5038l11.4472-6.5797       C75.3836,82.0756,75.7706,82.0779,76.0118,82.2172z" fill="#B6CBEA"/></g></g><path d="M82.6445,87.3467l-11.451,6.5794c-0.2396,0.1351-0.6266,0.1351-0.8631,0l-6.6408-3.8764     c-0.1198-0.0706-0.1782-0.1629-0.1782-0.255l0.0031-0.7433c0,0.0891,0.0614,0.1782,0.1782,0.2457l6.6408,3.8764     c0.2365,0.1383,0.6236,0.1383,0.8631,0l11.4479-6.5794c0.1229-0.0676,0.1813-0.1597,0.1843-0.2488l-0.003,0.7495     C82.8258,87.1868,82.7643,87.2791,82.6445,87.3467z" fill="#83A1CC"/><g><g><path d="M70.5387,88.8744l-2.3264,1.3383c-0.4731-0.343-0.4798-0.8299-0.0204-1.1764       c-0.1815,0.0374-0.4064,0.0272-0.6119-0.0125c-0.0603,0.0487-0.203,0.0521-0.3263,0.0079       c-0.0236-0.0087-0.0449-0.0186-0.0633-0.0292c-0.0748-0.0432-0.1041-0.0988-0.0667-0.1406       c-0.2864-0.1766-0.2801-0.4529,0.016-0.6228c0.2981-0.1709,0.7731-0.1721,1.077-0.0057       c0.0694-0.0206,0.1645-0.0037,0.2383,0.0388c0.0196,0.0113,0.0378,0.0245,0.0534,0.0393       c0.0748,0.0724,0.0673,0.154-0.0165,0.1891c0.0672,0.12,0.0835,0.2491,0.0176,0.3533       C69.1101,88.5914,69.9487,88.5993,70.5387,88.8744z" fill="#FFFFFF"/></g><g><polygon fill="#FFFFFF" points="73.5863,84.7405 74.0687,85.0214 70.7466,86.9292 70.2641,86.6485      "/></g><g><polygon fill="#FFFFFF" points="72.567,86.6779 73.0495,86.9586 71.9135,87.612 71.433,87.33      "/></g><g><path d="M70.2687,87.9873c0.9993,0.5815,0.9927,1.51,0.003,2.0806c-0.9882,0.5675-2.5849,0.5639-3.5723-0.0061       c-0.9973-0.5826-0.9947-1.5111-0.003-2.0806C67.6846,87.4136,69.2814,87.4172,70.2687,87.9873z M68.2122,90.2128l2.3264-1.3383       c-0.59-0.2751-1.4286-0.283-2.0292-0.0203c0.066-0.1042,0.0496-0.2333-0.0176-0.3533       c0.0838-0.0351,0.0913-0.1167,0.0165-0.1891c-0.0156-0.0148-0.0338-0.0279-0.0534-0.0393       c-0.0737-0.0426-0.1689-0.0594-0.2383-0.0388c-0.304-0.1664-0.779-0.1653-1.077,0.0057       c-0.2962,0.1698-0.3024,0.4461-0.016,0.6228c-0.0375,0.0418-0.0081,0.0974,0.0667,0.1406       c0.0184,0.0106,0.0397,0.0205,0.0633,0.0292c0.1234,0.0442,0.266,0.0408,0.3263-0.0079       c0.2055,0.0396,0.4304,0.0498,0.6119,0.0125C67.7325,89.3829,67.7392,89.8697,68.2122,90.2128" fill="#6B9EF9"/></g><g><polygon fill="#FFFFFF" points="76.1037,83.2935 76.5861,83.5743 74.5305,84.7553 74.0481,84.4744      "/></g><g><path d="M79.7869,86.3838c0.4523,0.2635,0.4489,0.6813,0.0026,0.9383l-3.248,1.8671       c-0.4458,0.2545-1.1617,0.2548-1.6056-0.0014c-0.4523-0.2635-0.4507-0.6825-0.0065-0.9383l3.2519-1.8671       C78.6251,86.1267,79.3431,86.1275,79.7869,86.3838z M75.7519,88.8778l1.9953-1.1459l-0.2903-0.1698l-1.9931,1.1469       L75.7519,88.8778 M78.0238,87.5712l1.2353-0.7088l-0.2882-0.1687l-1.2353,0.7088L78.0238,87.5712" fill="#6B9EF9"/></g><g><polygon fill="#FFFFFF" points="74.0264,85.8388 74.5089,86.1196 73.3886,86.7639 72.908,86.482      "/></g><g><polygon fill="#FFFFFF" points="76.1113,84.6409 76.5937,84.9217 74.9707,85.8535 74.4922,85.5727      "/></g><g><polygon fill="#FFFFFF" points="78.9709,86.6937 79.2591,86.8624 78.0238,87.5712 77.7356,87.4025      "/></g><g><polygon fill="#FFFFFF" points="77.4569,87.5621 77.7472,87.732 75.752,88.8778 75.4637,88.7091      "/></g></g></g><g><g enable-background="new    "><path d="M106.2555,69.7231l-0.5322,0.3093l-0.0019,0.9077l0.5322-0.3093      c0.0397-0.023,0.0595-0.0533,0.0596-0.0837l0.0019-0.9077C106.315,69.6698,106.2952,69.7002,106.2555,69.7231z" fill="#B6CBEA"/><path d="M106.6035,70.7088l-1.0331,0.6004l-0.0019,0.9077l1.0331-0.6004      c0.0395-0.023,0.0593-0.0532,0.0594-0.0835l0.0019-0.9076C106.6628,70.6557,106.6429,70.6859,106.6035,70.7088z" fill="#B6CBEA"/><g><polygon fill="#DEE7F8" points="105.5704,71.3092 105.5685,72.2168 102.0515,70.1863 102.0534,69.2786      "/></g><g><path d="M106.2545,69.5545c0.0803,0.0464,0.0808,0.1223,0.001,0.1687l-0.5322,0.3093l0.878,0.5069       c0.0816,0.0471,0.0821,0.1231,0.0023,0.1695l-1.0331,0.6003l-3.517-2.0306l1.0331-0.6003       c0.0798-0.0464,0.211-0.0464,0.2926,0.0008l0.8779,0.5069l0.5322-0.3093c0.0798-0.0464,0.211-0.0463,0.2926,0.0008       L106.2545,69.5545z" fill="#FDFEFF"/></g></g><g enable-background="new    "><g><path d="M105.5708,71.3101l-0.0021,0.9075l-4.3376,2.5193c-0.0783,0.0453-0.2103,0.0453-0.2907,0       l-3.2223-1.8617c-0.0412-0.0226-0.0618-0.0536-0.0618-0.0844l0.0021-0.9096c0,0.0309,0.0206,0.0639,0.0618,0.0866       l3.2223,1.8617c0.0804,0.0453,0.2123,0.0453,0.2907,0L105.5708,71.3101z" fill="#1E72C6"/></g><g><path d="M105.5704,71.3092l-4.3363,2.52c-0.0798,0.0464-0.211,0.0464-0.2926-0.0007l-3.2222-1.8603       c-0.0816-0.0471-0.0821-0.1231-0.0023-0.1695l4.3363-2.52L105.5704,71.3092z" fill="#6B9EF9"/></g><polygon fill="#FFFFFF" points="103.1509,70.7292 100.3876,71.2589 101.4447,71.8076 100.0772,72.4133 102.6838,71.9033       101.6628,71.363     "/></g></g><g><g><path d="M54.5564,52.8184c0.0293-0.0196,0.0305-0.0424,0.0305-0.0424      c-0.0058-0.0079-0.1194-0.1531-0.4436-0.2608c-0.2147-0.0672-0.2319-0.1444-0.2182-0.1897      c0.0071-0.0233,0.0331-0.035,0.0557-0.0277c0.181,0.0585,0.2991,0.0253,0.3664-0.0182      c0.0259-0.0138,0.0456-0.0296,0.0599-0.0439c0.0188-0.0186,0.0123-0.0493-0.0125-0.0558      c-0.0679-0.0173-0.2183-0.0488-0.4919-0.0747c-0.4018-0.0427-0.4829,0.0914-0.5544,0.1057      c-0.0714,0.0142-0.1956-0.0472-0.2051-0.0498l-0.201,0.3166l0.0681,0.0152c0.0828,0.0186,0.1497,0.0735,0.1881,0.1479      c0.1374,0.2665,0.5141,0.4439,0.7152,0.4913c0.0569,0.0115,0.0888,0.0096,0.106,0.0017      c0.042-0.0266-0.0171-0.1147-0.0409-0.1507c0.0205,0.0141,0.0896,0.0457,0.278,0.0762      c0.0524,0.0122,0.0792,0.0069,0.0964-0.0011c0.0337-0.0205-0.0355-0.0837-0.0822-0.1195      c0.0871,0.0597,0.1152,0.0632,0.1152,0.0632c0.0504-0.001,0.0772-0.0064,0.0937-0.0187      c0.0847-0.0487-0.1802-0.1908-0.1905-0.1979C54.446,52.8494,54.5226,52.8386,54.5564,52.8184z" fill="#ECB4BF"/><path d="M50.7043,49.8407c-0.3227-0.9616-1.3539-3.4454-2.1075-3.3035      c-0.9701,0.183-0.5592,1.1268-0.5592,1.1268c0.1358,0.4167,1.3404,2.6665,1.8237,3.4364      c0.1221,0.1945,3.339,1.6855,3.339,1.6855c-0.0094-0.4994,0.234-0.6629,0.234-0.6629S50.7983,50.1203,50.7043,49.8407z" fill="#9EB5DF"/></g></g></g></g></svg>